<?xml version="1.0" encoding="UTF-8"?>
<svg version="1.1" xmlns="http://www.w3.org/2000/svg" width="894" height="294">
<path d="M0 0 C295.02 0 590.04 0 894 0 C894 97.02 894 194.04 894 294 C598.98 294 303.96 294 0 294 C0 196.98 0 99.96 0 0 Z " fill="#FEFEFE" transform="translate(0,0)"/>
<path d="M0 0 C187.11 0 374.22 0 567 0 C567 19.14 567 38.28 567 58 C379.89 58 192.78 58 0 58 C0 38.86 0 19.72 0 0 Z " fill="#02BEFD" transform="translate(312,181)"/>
<path d="M0 0 C58.74 0 117.48 0 178 0 C185.03101499 108.02195756 185.03101499 108.02195756 183.83984375 134.078125 C183.79799666 135.05249543 183.75614957 136.02686586 183.71303439 137.03076267 C181.9686962 174.89443985 171.46696374 201.17510621 143.48857307 227.01383972 C140.39505589 229.81633594 137.23984754 232.54326122 134.0625 235.25 C133.53777729 235.69932514 133.01305458 236.14865028 132.47243118 236.61159134 C95.72408769 268 95.72408769 268 89 268 C89 208.93 89 149.86 89 89 C59.63 89 30.26 89 0 89 C0 59.63 0 30.26 0 0 Z " fill="#00BFFF" transform="translate(105,14)"/>
<path d="M0 0 C29.37 0 58.74 0 89 0 C89 29.04 89 58.08 89 88 C59.63 88 30.26 88 0 88 C0 58.96 0 29.92 0 0 Z " fill="#3B3B3B" transform="translate(15,104)"/>
<path d="M0 0 C6.27 0 12.54 0 19 0 C19 25.08 19 50.16 19 76 C13.06 76 7.12 76 1 76 C1 74.35 1 72.7 1 71 C0.34 71 -0.32 71 -1 71 C-1 71.66 -1 72.32 -1 73 C-7.88161397 76.89263013 -14.13591375 78.27631862 -22 77 C-29.94759109 74.36043641 -36.14028586 70.57045686 -40 63 C-43.69413283 54.74835464 -44.74430372 45.37347776 -41.93359375 36.71484375 C-38.16481849 28.42764584 -33.38078505 23.77019542 -25.125 20.125 C-17.44635524 17.61554075 -10.87434473 18.51679758 -3.71484375 22.02734375 C-2 23 -2 23 -1 24 C-0.67 16.08 -0.34 8.16 0 0 Z " fill="#3B3B3B" transform="translate(845,79)"/>
<path d="M0 0 C6.27 0 12.54 0 19 0 C20.42847077 4.07369255 21.85406049 8.14816417 23.27246094 12.2253418 C23.75581792 13.61199243 24.24083311 14.99806621 24.72753906 16.38354492 C25.42689953 18.37529498 26.12026718 20.36904455 26.8125 22.36328125 C27.23144531 23.56251221 27.65039062 24.76174316 28.08203125 25.99731445 C29 29 29 29 29 32 C29.66 32 30.32 32 31 32 C31.24621094 30.7521875 31.49242187 29.504375 31.74609375 28.21875 C33.02640471 22.46129879 35.01058757 17.02070895 37.0625 11.5 C37.60874023 9.99953125 37.60874023 9.99953125 38.16601562 8.46875 C40.85925752 1.14074248 40.85925752 1.14074248 42 0 C44.86267567 -0.07325168 47.700719 -0.09238205 50.5625 -0.0625 C51.36880859 -0.05798828 52.17511719 -0.05347656 53.00585938 -0.04882812 C55.00393756 -0.03700518 57.00197783 -0.01906914 59 0 C60.4279783 4.2345633 61.85204104 8.47041664 63.27246094 12.70751953 C63.75640691 14.14928877 64.24142839 15.59069746 64.72753906 17.03173828 C65.42534712 19.10095279 66.11929998 21.17142543 66.8125 23.2421875 C67.23144531 24.4885498 67.65039062 25.73491211 68.08203125 27.01904297 C69 30 69 30 69 32 C69.66 32 70.32 32 71 32 C71.24621094 30.7521875 71.49242187 29.504375 71.74609375 28.21875 C73.02640471 22.46129879 75.01058757 17.02070895 77.0625 11.5 C77.42666016 10.4996875 77.79082031 9.499375 78.16601562 8.46875 C80.85925752 1.14074248 80.85925752 1.14074248 82 0 C84.86267567 -0.07325168 87.700719 -0.09238205 90.5625 -0.0625 C91.36880859 -0.05798828 92.17511719 -0.05347656 93.00585938 -0.04882812 C95.00393756 -0.03700518 97.00197783 -0.01906914 99 0 C95.92133656 9.31054447 92.69925619 18.5699459 89.47485352 27.83081055 C88.78031293 29.82714478 88.08696338 31.82389376 87.39477539 33.82104492 C86.38949852 36.72145749 85.38070079 39.62062356 84.37109375 42.51953125 C84.06272079 43.41122513 83.75434784 44.30291901 83.43663025 45.22163391 C83.14615311 46.0531749 82.85567596 46.88471588 82.55639648 47.74145508 C82.30341293 48.46931717 82.05042938 49.19717926 81.78977966 49.94709778 C80.9920857 52.02057192 79.9935402 54.0129196 79 56 C72.73 56 66.46 56 60 56 C56.7 46.76 53.4 37.52 50 28 C48.03970838 30.94043744 47.01396486 33.44641317 45.8359375 36.76171875 C45.43632812 37.87998047 45.03671875 38.99824219 44.625 40.15039062 C44.00625 41.90125977 44.00625 41.90125977 43.375 43.6875 C42.95476562 44.86634766 42.53453125 46.04519531 42.1015625 47.25976562 C41.06404945 50.1718761 40.03154787 53.08577115 39 56 C32.73 56 26.46 56 20 56 C15.76037594 46.22621019 12.18925885 36.28465375 8.69628906 26.22460938 C7.74180057 23.47639172 6.78147188 20.73026585 5.8203125 17.984375 C5.20799455 16.22928483 4.59600332 14.47408062 3.984375 12.71875 C3.69898865 11.90208862 3.41360229 11.08542725 3.11956787 10.24401855 C2.85549133 9.4822229 2.59141479 8.72042725 2.31933594 7.93554688 C2.08792908 7.27002808 1.85652222 6.60450928 1.61810303 5.91882324 C0.99097968 3.97199754 0.49606771 1.98427085 0 0 Z " fill="#3D3D3D" transform="translate(388,99)"/>
<path d="M0 0 C4.79518785 3.74917874 7.45187132 9.52874264 10.125 14.875 C11.16507172 25.17039346 10.36454332 33.24896468 4.125 41.875 C1.69276156 44.44755989 -0.76742363 46.19613048 -3.875 47.875 C-4.62652344 48.28492188 -5.37804687 48.69484375 -6.15234375 49.1171875 C-15.17444049 53.35771919 -25.24150519 53.14439171 -34.58984375 49.921875 C-42.29491027 46.39203256 -47.63817752 40.92585227 -51.125 33.25 C-53.62335776 26.49444061 -54.1779195 20.59039235 -51.76953125 13.72265625 C-47.44965235 4.35326743 -42.38869231 -0.40609222 -32.98828125 -4.36328125 C-21.8811397 -8.36677959 -9.94597522 -6.15598907 0 0 Z " fill="#3D3D3D" transform="translate(729.875,104.125)"/>
<path d="M0 0 C5.86731627 3.29687295 9.62564744 7.33171438 11.625 13.875 C11.89111898 17.02990179 11.85781104 20.16790406 11.8203125 23.33203125 C11.8174826 24.23499435 11.81465271 25.13795746 11.81173706 26.06828308 C11.80057607 28.94149234 11.77547897 31.81438555 11.75 34.6875 C11.73996493 36.63996944 11.73084 38.59244379 11.72265625 40.54492188 C11.70235488 45.32183319 11.66319851 50.09806438 11.625 54.875 C5.355 54.875 -0.915 54.875 -7.375 54.875 C-7.38917969 52.47863281 -7.40335938 50.08226562 -7.41796875 47.61328125 C-7.44861467 45.28314284 -7.48769635 42.95328732 -7.52758789 40.62329102 C-7.55073286 39.00848451 -7.56515543 37.39352779 -7.57055664 35.77856445 C-7.57987274 33.45168852 -7.62091368 31.12716324 -7.66796875 28.80078125 C-7.6640361 28.08287918 -7.66010345 27.36497711 -7.65605164 26.62532043 C-7.76975872 22.68713791 -8.26491841 21.00985106 -10.78808594 17.91894531 C-13.33412064 15.90729917 -14.27243774 15.2055297 -17.4375 15.3125 C-21.35694641 15.54329888 -21.35694641 15.54329888 -23.8125 17.75 C-26.61589148 21.56261241 -26.58351027 24.69553486 -26.69140625 29.2890625 C-26.71218735 30.01870209 -26.73296844 30.74834167 -26.75437927 31.50009155 C-26.81981917 33.83329763 -26.87873368 36.16661721 -26.9375 38.5 C-26.98069053 40.08074095 -27.02430499 41.66147039 -27.06835938 43.2421875 C-27.17629369 47.11967697 -27.27540755 50.9972513 -27.375 54.875 C-33.975 54.875 -40.575 54.875 -47.375 54.875 C-47.375 36.395 -47.375 17.915 -47.375 -1.125 C-41.105 -1.125 -34.835 -1.125 -28.375 -1.125 C-28.375 0.525 -28.375 2.175 -28.375 3.875 C-27.76011719 3.52566406 -27.14523437 3.17632812 -26.51171875 2.81640625 C-25.70347656 2.36136719 -24.89523437 1.90632813 -24.0625 1.4375 C-23.26199219 0.98503906 -22.46148438 0.53257813 -21.63671875 0.06640625 C-14.72962886 -3.57204352 -6.98718373 -3.2683678 0 0 Z " fill="#3C3C3C" transform="translate(583.375,100.125)"/>
<path d="M0 0 C21.45 0 42.9 0 65 0 C65 5.28 65 10.56 65 16 C57.74 16 50.48 16 43 16 C43 34.48 43 52.96 43 72 C36.07 72 29.14 72 22 72 C22 53.52 22 35.04 22 16 C14.74 16 7.48 16 0 16 C0 10.72 0 5.44 0 0 Z " fill="#3D3D3D" transform="translate(321,83)"/>
<path d="M0 0 C3.76370442 2.59262373 6.46387191 5.19580787 9 9 C8.9921875 10.98046875 8.9921875 10.98046875 8 13 C5.3828125 14.73828125 5.3828125 14.73828125 2.125 16.3125 C1.05507813 16.84488281 -0.01484375 17.37726563 -1.1171875 17.92578125 C-4 19 -4 19 -7 18 C-8.35368596 16.68733482 -9.68799596 15.35432675 -11 14 C-14.20613847 12.39693076 -17.52139997 12.51259539 -21 13 C-24.43823122 15.0928364 -26.81169353 17.110997 -28 21 C-28.45453431 26.6362255 -28.14169008 30.11292654 -25 35 C-20.76447144 37.82368571 -16.97522686 37.66653757 -12 37 C-9.06576805 35.20353146 -7.52794645 34.0558929 -6 31 C-0.52067211 32.54545146 4.11429181 35.15543212 9 38 C8.37463849 43.608711 5.70000925 45.7105496 1.51171875 49.1953125 C-6.15892371 54.70672279 -14.79645364 54.93187216 -24 54 C-32.50444309 51.92945471 -40.1320417 47.26167591 -44.9375 39.875 C-49.09076724 32.86372175 -48.68379409 24.89983294 -48 17 C-45.85510525 9.06912088 -40.97363584 4.08874139 -34 0 C-22.7616424 -5.67815069 -11.23757319 -5.77780886 0 0 Z " fill="#3D3D3D" transform="translate(659,102)"/>
<path d="M0 0 C6.27 0 12.54 0 19 0 C19 1.65 19 3.3 19 5 C19.54527344 4.6390625 20.09054687 4.278125 20.65234375 3.90625 C26.45117087 0.337741 30.21577529 -0.53843053 37 0 C37 5.61 37 11.22 37 17 C35.453125 17.12375 33.90625 17.2475 32.3125 17.375 C26.8899759 17.83779894 26.8899759 17.83779894 22 20 C20.15042416 24.434545 19.70843729 28.37094579 19.5859375 33.1484375 C19.56657135 33.80582916 19.5472052 34.46322083 19.5272522 35.14053345 C19.46797539 37.21856135 19.42128206 39.29664624 19.375 41.375 C19.33677222 42.7929915 19.29771777 44.21096097 19.2578125 45.62890625 C19.16077644 49.08581595 19.08080209 52.54252112 19 56 C12.73 56 6.46 56 0 56 C0 37.52 0 19.04 0 0 Z " fill="#3C3C3C" transform="translate(755,99)"/>
<path d="M0 0 C6.27 0 12.54 0 19 0 C19 18.48 19 36.96 19 56 C12.73 56 6.46 56 0 56 C0 37.52 0 19.04 0 0 Z " fill="#3A3A3A" transform="translate(499,99)"/>
<path d="M0 0 C3.73739707 1.66106536 5.86231004 3.53897817 8 7 C8.77983415 11.66600765 9.12674548 16.77572096 6.9453125 21.08203125 C4.67273472 23.84543204 2.61342241 25.80664289 -0.98828125 26.23828125 C-5.05070018 26.36800555 -7.37166461 26.37432746 -10.9375 24.25 C-14.94726464 19.8757113 -15.43540498 16.27535214 -15.32421875 10.4765625 C-14.85052678 6.85824074 -13.37324418 4.71227906 -11 2 C-7.29017554 -0.4732163 -4.30111858 -0.54710902 0 0 Z " fill="#FBFBFB" transform="translate(712,114)"/>
<path d="M0 0 C4.05549932 2.1028515 6.32004909 3.76957815 8 8 C8.7164344 13.04836331 8.54701546 16.94369429 6.1875 21.5 C3.98483188 24.017335 2.31963294 25.76120928 -1.05078125 26.37109375 C-5.27084768 26.49499898 -8.12711602 26.39887404 -11.5 23.6875 C-15.50511148 19.38200515 -15.38927459 15.38182801 -15.359375 9.73828125 C-14.79931339 5.47085526 -13.14910247 3.84918795 -10 1 C-6.78501861 -0.6074907 -3.48701742 -0.47314549 0 0 Z " fill="#FBFBFB" transform="translate(837,114)"/>
<path d="M0 0 C3.34285989 2.36387949 4.06573477 4.02669404 4.765625 8.03515625 C4.42217761 12.68490555 2.34645153 14.90714702 -0.921875 18.09765625 C-4.62408666 19.94876208 -8.88094417 19.5622042 -12.921875 19.09765625 C-16.3803402 17.08021822 -18.80570892 15.00423753 -19.921875 11.09765625 C-19.84143805 6.67362424 -19.38900094 4.66312449 -16.546875 1.22265625 C-11.56275149 -2.8121104 -5.73002447 -2.69031637 0 0 Z " fill="#3F3F3F" transform="translate(515.921875,73.90234375)"/>
<path d="M0 0 C0.99 0 1.98 0 3 0 C3.99 0 4.98 0 6 0 C6.11638036 3.24969769 6.18730581 6.4988583 6.25 9.75 C6.28351562 10.67039063 6.31703125 11.59078125 6.3515625 12.5390625 C6.45078327 19.38529554 6.45078327 19.38529554 4.109375 22.578125 C0.1314559 25.25953713 -3.28706044 25.40050672 -8 25 C-10.5 24 -10.5 24 -12 23 C-11.67 22.01 -11.34 21.02 -11 20 C-10.31292969 20.10699219 -9.62585938 20.21398437 -8.91796875 20.32421875 C-8.01691406 20.44410156 -7.11585938 20.56398437 -6.1875 20.6875 C-4.84751953 20.87892578 -4.84751953 20.87892578 -3.48046875 21.07421875 C-0.96938287 21.2338213 -0.96938287 21.2338213 0.76171875 19.70703125 C2.19832429 17.90681929 2.19832429 17.90681929 3 15 C2.01 15.66 1.02 16.32 0 17 C-4.86581934 17.5493667 -6.8976444 17.73490373 -11 15 C-13.77041398 10.84437903 -13.70476018 8.93332128 -13 4 C-9.97339457 -1.26366162 -5.38829824 -0.35723524 0 0 Z " fill="#364246" transform="translate(581,204)"/>
<path d="M0 0 C13.18162839 -0.49277115 13.18162839 -0.49277115 16.92578125 1.76171875 C19 4 19 4 19.59375 6.03515625 C19.33528408 11.62448183 19.33528408 11.62448183 17.4375 13.75 C16.963125 14.1625 16.48875 14.575 16 15 C16.3171632 18.171632 17.77929188 21.07030051 19 24 C17.25 23.8125 17.25 23.8125 15 23 C14.4225 22.175 13.845 21.35 13.25 20.5 C10.77443589 17.74937321 10.23587675 17.59868617 6.75 17.1875 C5.5125 17.125625 4.275 17.06375 3 17 C3 19.31 3 21.62 3 24 C2.01 24 1.02 24 0 24 C0 16.08 0 8.16 0 0 Z " fill="#364144" transform="translate(354,198)"/>
<path d="M0 0 C1.32 0 2.64 0 4 0 C4 8.58 4 17.16 4 26 C3.01 26 2.02 26 1 26 C0.67 25.34 0.34 24.68 0 24 C-0.99 24.66 -1.98 25.32 -3 26 C-7.32351988 26.56045628 -9.29704773 26.4786058 -12.9375 24 C-15.24292204 20.64665885 -15.70728149 18.91111569 -15.40625 14.9375 C-14.70009046 11.56966219 -13.71195062 10.11664438 -11 8 C-7.20533849 7.42035366 -3.47785711 7.26107144 0 9 C0 6.03 0 3.06 0 0 Z " fill="#34464C" transform="translate(423,196)"/>
<path d="M0 0 C2.86830829 2.01391859 4.61592935 3.45434983 5.48046875 6.93359375 C5.75501158 10.85881416 5.22076904 12.66884645 3 16 C-0.35243241 18.23495494 -2.12916275 18.67920629 -6.06640625 18.43359375 C-9.10618646 17.75194607 -10.86696044 16.19767713 -13 14 C-14.45147903 11.09704195 -14.37239025 9.22738221 -14 6 C-10.15604442 -0.21057003 -7.1080184 -1.68664843 0 0 Z " fill="#35454A" transform="translate(806,204)"/>
<path d="M0 0 C2.86830829 2.01391859 4.61592935 3.45434983 5.48046875 6.93359375 C5.75501158 10.85881416 5.22076904 12.66884645 3 16 C-0.35243241 18.23495494 -2.12916275 18.67920629 -6.06640625 18.43359375 C-9.10618646 17.75194607 -10.86696044 16.19767713 -13 14 C-14.45147903 11.09704195 -14.37239025 9.22738221 -14 6 C-10.15604442 -0.21057003 -7.1080184 -1.68664843 0 0 Z " fill="#35454A" transform="translate(697,204)"/>
<path d="M0 0 C2.4375 1.6875 2.4375 1.6875 4 4 C4 5.98 4 7.96 4 10 C-0.62 10 -5.24 10 -10 10 C-9.67 11.32 -9.34 12.64 -9 14 C-8.38511719 14 -7.77023437 14 -7.13671875 14 C-3.7578125 14 -0.37890625 14 3 14 C2 17 2 17 0 18 C-7.08958838 18.5811138 -7.08958838 18.5811138 -10.9375 16.125 C-13.43244905 13.55444644 -13.95420243 12.70222937 -14.1875 9.125 C-13.99980187 5.99669788 -13.8176857 4.5101374 -12 2 C-7.90546444 -1.39261518 -5.05671508 -1.37910411 0 0 Z " fill="#324C54" transform="translate(450,204)"/>
<path d="M0 0 C2.9375 2.25 2.9375 2.25 5 5 C5 6.65 5 8.3 5 10 C0.05 10 -4.9 10 -10 10 C-7.57208447 14.20516915 -7.57208447 14.20516915 -4.51953125 14.390625 C-3.62621094 14.34421875 -2.73289062 14.2978125 -1.8125 14.25 C-0.91144531 14.21390625 -0.01039063 14.1778125 0.91796875 14.140625 C1.60503906 14.09421875 2.29210937 14.0478125 3 14 C2.34 15.32 1.68 16.64 1 18 C-3.77247406 18.46788961 -6.95087582 18.68514232 -11.0625 16 C-13.22259236 12.65534086 -13.67672257 10.83102236 -13.43359375 6.93359375 C-12.75194607 3.89381354 -11.19767713 2.13303956 -9 0 C-5.77509551 -1.61245225 -3.43772273 -0.81573082 0 0 Z " fill="#2F525E" transform="translate(395,204)"/>
<path d="M0 0 C1.32 0.33 2.64 0.66 4 1 C4.33 0.67 4.66 0.34 5 0 C6.92578125 -0.23828125 6.92578125 -0.23828125 9.3125 -0.3125 C10.09238281 -0.34988281 10.87226563 -0.38726562 11.67578125 -0.42578125 C14.98725791 0.18085901 16.06363736 1.26450357 18 4 C18.390625 7.453125 18.390625 7.453125 18.25 11.25 C18.21390625 12.51328125 18.1778125 13.7765625 18.140625 15.078125 C18.07101562 16.52445313 18.07101562 16.52445313 18 18 C16.68 18 15.36 18 14 18 C13.67 13.38 13.34 8.76 13 4 C10.69 4 8.38 4 6 4 C4.12175109 5.87824891 4.60897603 9.03935276 4.4375 11.5625 C4.31181641 13.35880859 4.31181641 13.35880859 4.18359375 15.19140625 C4.12300781 16.11824219 4.06242187 17.04507813 4 18 C2.68 18 1.36 18 0 18 C0 12.06 0 6.12 0 0 Z " fill="#324B54" transform="translate(498,204)"/>
<path d="M0 0 C1.32 0 2.64 0 4 0 C4 0.66 4 1.32 4 2 C4.66 1.67 5.32 1.34 6 1 C8.05859375 0.76171875 8.05859375 0.76171875 10.4375 0.6875 C11.21996094 0.65011719 12.00242187 0.61273438 12.80859375 0.57421875 C15 1 15 1 16.7734375 2.56640625 C18.45550132 5.90374943 18.29070885 8.53448125 18.1875 12.25 C18.16042969 13.51328125 18.13335938 14.7765625 18.10546875 16.078125 C18.07066406 17.04234375 18.03585937 18.0065625 18 19 C17.01 19 16.02 19 15 19 C14.93941406 18.15695313 14.87882813 17.31390625 14.81640625 16.4453125 C14.73261719 15.34960938 14.64882813 14.25390625 14.5625 13.125 C14.48128906 12.03445312 14.40007813 10.94390625 14.31640625 9.8203125 C14.16998297 7.05271029 14.16998297 7.05271029 13 5 C10.66705225 4.95758277 8.33297433 4.95907063 6 5 C4.12175109 6.87824891 4.60897603 10.03935276 4.4375 12.5625 C4.31181641 14.35880859 4.31181641 14.35880859 4.18359375 16.19140625 C4.12300781 17.11824219 4.06242188 18.04507813 4 19 C2.68 19 1.36 19 0 19 C0 12.73 0 6.46 0 0 Z " fill="#30505B" transform="translate(656,203)"/>
<path d="M0 0 C1.32 0.33 2.64 0.66 4 1 C4.33 0.67 4.66 0.34 5 0 C6.9609375 -0.203125 6.9609375 -0.203125 9.375 -0.25 C10.16648437 -0.27578125 10.95796875 -0.3015625 11.7734375 -0.328125 C14 0 14 0 15.77734375 1.03515625 C17.67657044 4.08726815 17.31394991 7.21499098 17.1875 10.6875 C17.16719727 11.7403418 17.16719727 11.7403418 17.14648438 12.81445312 C17.11120182 14.54329829 17.05739583 16.27174765 17 18 C16.01 18 15.02 18 14 18 C13.93941406 17.07316406 13.87882813 16.14632812 13.81640625 15.19140625 C13.73261719 13.99386719 13.64882813 12.79632813 13.5625 11.5625 C13.48128906 10.36753906 13.40007813 9.17257813 13.31640625 7.94140625 C13.32343886 5.11429756 13.32343886 5.11429756 12 4 C9.66702567 3.95907063 7.33294775 3.95758277 5 4 C3.64908472 6.70183055 3.66141942 9.11808206 3.4375 12.125 C3.35371094 13.22070312 3.26992188 14.31640625 3.18359375 15.4453125 C3.12300781 16.28835937 3.06242188 17.13140625 3 18 C2.01 18 1.02 18 0 18 C0 12.06 0 6.12 0 0 Z " fill="#364145" transform="translate(628,204)"/>
<path d="M0 0 C1.32 0.33 2.64 0.66 4 1 C4.33 0.67 4.66 0.34 5 0 C6.9609375 -0.203125 6.9609375 -0.203125 9.375 -0.25 C10.16648437 -0.27578125 10.95796875 -0.3015625 11.7734375 -0.328125 C14 0 14 0 15.77734375 1.03515625 C17.67657044 4.08726815 17.31394991 7.21499098 17.1875 10.6875 C17.16719727 11.7403418 17.16719727 11.7403418 17.14648438 12.81445312 C17.11120182 14.54329829 17.05739583 16.27174765 17 18 C16.01 18 15.02 18 14 18 C13.93941406 17.07316406 13.87882813 16.14632812 13.81640625 15.19140625 C13.73261719 13.99386719 13.64882813 12.79632813 13.5625 11.5625 C13.48128906 10.36753906 13.40007813 9.17257813 13.31640625 7.94140625 C13.32343886 5.11429756 13.32343886 5.11429756 12 4 C9.66702567 3.95907063 7.33294775 3.95758277 5 4 C3.64908472 6.70183055 3.66141942 9.11808206 3.4375 12.125 C3.35371094 13.22070312 3.26992188 14.31640625 3.18359375 15.4453125 C3.12300781 16.28835937 3.06242188 17.13140625 3 18 C2.01 18 1.02 18 0 18 C0 12.06 0 6.12 0 0 Z " fill="#364145" transform="translate(541,204)"/>
<path d="M0 0 C1.32 0.33 2.64 0.66 4 1 C4.33 0.67 4.66 0.34 5 0 C6.9609375 -0.203125 6.9609375 -0.203125 9.375 -0.25 C10.16648437 -0.27578125 10.95796875 -0.3015625 11.7734375 -0.328125 C14 0 14 0 15.77734375 1.03515625 C17.67657044 4.08726815 17.31394991 7.21499098 17.1875 10.6875 C17.16719727 11.7403418 17.16719727 11.7403418 17.14648438 12.81445312 C17.11120182 14.54329829 17.05739583 16.27174765 17 18 C16.01 18 15.02 18 14 18 C13.93941406 17.07316406 13.87882813 16.14632812 13.81640625 15.19140625 C13.73261719 13.99386719 13.64882813 12.79632813 13.5625 11.5625 C13.48128906 10.36753906 13.40007813 9.17257813 13.31640625 7.94140625 C13.32343886 5.11429756 13.32343886 5.11429756 12 4 C8.5 3.83333333 8.5 3.83333333 5 4 C3.12175109 5.87824891 3.60897603 9.03935276 3.4375 11.5625 C3.31181641 13.35880859 3.31181641 13.35880859 3.18359375 15.19140625 C3.12300781 16.11824219 3.06242188 17.04507813 3 18 C2.01 18 1.02 18 0 18 C0 12.06 0 6.12 0 0 Z " fill="#364144" transform="translate(821,204)"/>
<path d="M0 0 C0.94875 0.04125 1.8975 0.0825 2.875 0.125 C3.205 1.115 3.535 2.105 3.875 3.125 C2.225 3.455 0.575 3.785 -1.125 4.125 C-1.455 5.445 -1.785 6.765 -2.125 8.125 C-0.475 8.125 1.175 8.125 2.875 8.125 C2.875 8.785 2.875 9.445 2.875 10.125 C1.225 10.125 -0.425 10.125 -2.125 10.125 C-2.125 15.405 -2.125 20.685 -2.125 26.125 C-3.445 26.125 -4.765 26.125 -6.125 26.125 C-6.125 20.845 -6.125 15.565 -6.125 10.125 C-7.115 10.125 -8.105 10.125 -9.125 10.125 C-9.125 9.135 -9.125 8.145 -9.125 7.125 C-8.135 7.125 -7.145 7.125 -6.125 7.125 C-6.00125 6.34125 -5.8775 5.5575 -5.75 4.75 C-4.82468755 0.8636877 -4.01182624 0.16047305 0 0 Z " fill="#324C54" transform="translate(470.125,195.875)"/>
<path d="M0 0 C1.588125 -0.061875 3.17625 -0.12375 4.8125 -0.1875 C6.15248047 -0.23970703 6.15248047 -0.23970703 7.51953125 -0.29296875 C10 0 10 0 11.83203125 1.3203125 C13 3 13 3 12.875 6.0625 C12 9 12 9 9 11 C5.97670744 11.2610788 3.04123758 11.08815181 0 11 C0 7.37 0 3.74 0 0 Z " fill="#03B7F3" transform="translate(357,201)"/>
<path d="M0 0 C1.875 1.125 1.875 1.125 3 3 C2.66666667 9.33333333 2.66666667 9.33333333 0 12 C-3.07108055 12.3267107 -5.15050101 12.48138276 -7.875 10.9375 C-9.66235303 7.85928089 -9.43386742 5.47093932 -9 2 C-6.18112246 -1.3408919 -4.01115641 -1.4399023 0 0 Z " fill="#02B9F6" transform="translate(805,207)"/>
<path d="M0 0 C1.875 1.125 1.875 1.125 3 3 C2.66666667 9.33333333 2.66666667 9.33333333 0 12 C-3.07108055 12.3267107 -5.15050101 12.48138276 -7.875 10.9375 C-9.66235303 7.85928089 -9.43386742 5.47093932 -9 2 C-6.18112246 -1.3408919 -4.01115641 -1.4399023 0 0 Z " fill="#02B9F6" transform="translate(696,207)"/>
<path d="M0 0 C2.875 0.875 2.875 0.875 4.875 2.875 C5.42521834 8.92740175 5.42521834 8.92740175 3.75 11.8125 C0.95337528 13.39725401 -0.9743196 13.33447423 -4.125 12.875 C-6.4401023 10.79140793 -7.02776165 9.43064772 -7.5625 6.375 C-7.125 3.875 -7.125 3.875 -5.5 1.5 C-3.125 -0.125 -3.125 -0.125 0 0 Z " fill="#02B9F7" transform="translate(418.125,206.125)"/>
<path d="M0 0 C2.375 1.625 2.375 1.625 4 4 C3.85205998 7.6985004 3.64194427 9.35805573 1 12 C-2.4375 12.375 -2.4375 12.375 -6 12 C-8 10.375 -8 10.375 -9 8 C-8.875 4.875 -8.875 4.875 -8 2 C-4.75173326 -0.16551116 -3.76905843 -0.55156953 0 0 Z " fill="#03B7F3" transform="translate(580,206)"/>
<path d="M0 0 C1.796875 0.12109375 1.796875 0.12109375 4 1 C6.39749771 4.83269702 8.09540358 8.88780318 10 13 C11.98 9.04 13.96 5.08 16 1 C16.99 1 17.98 1 19 1 C17.06375702 7.20477864 14.74390859 13.10825719 12 19 C9.73828125 18.99609375 9.73828125 18.99609375 7 18 C5.30108873 15.53584136 4.27499786 12.84006077 3.1875 10.0625 C2.87619141 9.32064453 2.56488281 8.57878906 2.24414062 7.81445312 C0 2.37426168 0 2.37426168 0 0 Z " fill="#34474D" transform="translate(708,203)"/>
<path d="M0 0 C1.31291016 -0.03867188 1.31291016 -0.03867188 2.65234375 -0.078125 C5.0625 0.25 5.0625 0.25 6.8671875 1.28515625 C8.72827521 4.3443952 8.37608971 7.47488269 8.25 10.9375 C8.23646484 11.63939453 8.22292969 12.34128906 8.20898438 13.06445312 C8.17370182 14.79329829 8.11989583 16.52174765 8.0625 18.25 C5.7525 17.92 3.4425 17.59 1.0625 17.25 C2.3825 14.94 3.7025 12.63 5.0625 10.25 C2.0925 10.25 -0.8775 10.25 -3.9375 10.25 C-3.6075 9.59 -3.2775 8.93 -2.9375 8.25 C-0.2975 8.25 2.3425 8.25 5.0625 8.25 C4.7325 6.93 4.4025 5.61 4.0625 4.25 C-0.98759595 3.31213918 -0.98759595 3.31213918 -5.9375 4.25 C-6.2675 3.26 -6.5975 2.27 -6.9375 1.25 C-4.48367866 0.02308933 -2.73765897 0.04824069 0 0 Z " fill="#373F41" transform="translate(740.9375,203.75)"/>
<path d="M0 0 C0.66 0.33 1.32 0.66 2 1 C1.34 2.32 0.68 3.64 0 5 C0.74765625 4.97679687 1.4953125 4.95359375 2.265625 4.9296875 C3.25046875 4.91164062 4.2353125 4.89359375 5.25 4.875 C6.22453125 4.85179687 7.1990625 4.82859375 8.203125 4.8046875 C11 5 11 5 15 7 C10.05 7 5.1 7 0 7 C2.42791553 11.20516915 2.42791553 11.20516915 5.48046875 11.390625 C6.37378906 11.34421875 7.26710938 11.2978125 8.1875 11.25 C9.08855469 11.21390625 9.98960937 11.1778125 10.91796875 11.140625 C11.60503906 11.09421875 12.29210937 11.0478125 13 11 C12.34 12.32 11.68 13.64 11 15 C6.22752594 15.46788961 3.04912418 15.68514232 -1.0625 13 C-3.7140016 8.89444914 -3.63203792 6.81928917 -3 2 C-2.01 1.34 -1.02 0.68 0 0 Z " fill="#364145" transform="translate(385,207)"/>
<path d="M0 0 C1.21236328 0.02707031 1.21236328 0.02707031 2.44921875 0.0546875 C3.37154297 0.08949219 3.37154297 0.08949219 4.3125 0.125 C4.3125 0.455 4.3125 0.785 4.3125 1.125 C1.6725 1.455 -0.9675 1.785 -3.6875 2.125 C-1.0475 2.455 1.5925 2.785 4.3125 3.125 C3.73905063 5.99224686 3.4510485 6.9864515 1.3125 9.125 C1.6425 9.785 1.9725 10.445 2.3125 11.125 C-5.02584586 11.48590226 -5.02584586 11.48590226 -7.75 10 C-9.20066732 7.09866536 -8.59201694 5.16159258 -7.6875 2.125 C-4.48369983 -0.01086678 -3.66810033 -0.10632175 0 0 Z " fill="#2E535F" transform="translate(741.6875,210.875)"/>
<path d="M0 0 C0.99 0 1.98 0 3 0 C3 1.32 3 2.64 3 4 C4.65 4 6.3 4 8 4 C8 4.66 8 5.32 8 6 C6.35 6 4.7 6 3 6 C3.33 9.96 3.66 13.92 4 18 C5.98 18.66 7.96 19.32 10 20 C9.67 20.66 9.34 21.32 9 22 C5.625 22.1875 5.625 22.1875 2 22 C-0.42130331 18.36804504 -0.21022785 16.61650652 -0.125 12.3125 C-0.09792969 10.54326172 -0.09792969 10.54326172 -0.0703125 8.73828125 C-0.03550781 7.38283203 -0.03550781 7.38283203 0 6 C-0.99 6 -1.98 6 -3 6 C-3 5.34 -3 4.68 -3 4 C-2.01 4 -1.02 4 0 4 C0 2.68 0 1.36 0 0 Z " fill="#383D3F" transform="translate(761,200)"/>
<path d="M0 0 C1.43583001 -0.10836453 2.8740202 -0.18576167 4.3125 -0.25 C5.11300781 -0.29640625 5.91351562 -0.3428125 6.73828125 -0.390625 C9 0 9 0 10.78125 1.5625 C12.45105915 4.90211829 12.29062696 7.53742947 12.1875 11.25 C12.16042969 12.51328125 12.13335938 13.7765625 12.10546875 15.078125 C12.07066406 16.04234375 12.03585937 17.0065625 12 18 C11.01 18 10.02 18 9 18 C8.93941406 17.15695313 8.87882813 16.31390625 8.81640625 15.4453125 C8.73261719 14.34960938 8.64882813 13.25390625 8.5625 12.125 C8.48128906 11.03445312 8.40007813 9.94390625 8.31640625 8.8203125 C8.16998297 6.05271029 8.16998297 6.05271029 7 4 C4.36 4 1.72 4 -1 4 C-0.67 2.68 -0.34 1.36 0 0 Z " fill="#354449" transform="translate(662,204)"/>
<path d="M0 0 C1.32 0 2.64 0 4 0 C4 6.27 4 12.54 4 19 C2.68 19 1.36 19 0 19 C0 12.73 0 6.46 0 0 Z " fill="#2F525E" transform="translate(779,203)"/>
<path d="M0 0 C1.32 0 2.64 0 4 0 C4 6.27 4 12.54 4 19 C2.68 19 1.36 19 0 19 C0 12.73 0 6.46 0 0 Z " fill="#2F525E" transform="translate(526,203)"/>
<path d="M0 0 C0.99 0 1.98 0 3 0 C3 7.92 3 15.84 3 24 C2.01 24 1.02 24 0 24 C0 16.08 0 8.16 0 0 Z " fill="#3A3A3A" transform="translate(613,198)"/>
<path d="M0 0 C3.73353364 0.2871949 6.32404139 0.53202866 9.4375 2.6875 C11 5 11 5 11 11 C6.38 11 1.76 11 -3 11 C-3 10.34 -3 9.68 -3 9 C0.63 9 4.26 9 8 9 C6.9354148 6.39056942 6.9354148 6.39056942 5 4 C1.87364791 3.58253392 1.87364791 3.58253392 -1 4 C-0.67 2.68 -0.34 1.36 0 0 Z " fill="#354449" transform="translate(443,203)"/>
<path d="M0 0 C1.32 0.33 2.64 0.66 4 1 C4.99 1 5.98 1 7 1 C7 1.66 7 2.32 7 3 C6.51917969 3.40863281 6.03835938 3.81726563 5.54296875 4.23828125 C3.32561454 6.76999453 3.49063958 8.87410383 3.3125 12.1875 C3.24675781 13.27417969 3.18101562 14.36085937 3.11328125 15.48046875 C3.07589844 16.31191406 3.03851562 17.14335937 3 18 C2.01 18 1.02 18 0 18 C0 12.06 0 6.12 0 0 Z " fill="#393B3C" transform="translate(628,204)"/>
<path d="M0 0 C1.32 0.33 2.64 0.66 4 1 C4.99 1 5.98 1 7 1 C7 1.66 7 2.32 7 3 C6.51917969 3.40863281 6.03835938 3.81726563 5.54296875 4.23828125 C3.32561454 6.76999453 3.49063958 8.87410383 3.3125 12.1875 C3.24675781 13.27417969 3.18101562 14.36085937 3.11328125 15.48046875 C3.07589844 16.31191406 3.03851562 17.14335937 3 18 C2.01 18 1.02 18 0 18 C0 12.06 0 6.12 0 0 Z " fill="#393B3C" transform="translate(541,204)"/>
<path d="M0 0 C0.99 0 1.98 0 3 0 C4.04167441 4.09725269 3.94409525 7.61495224 3.5625 11.8125 C3.46066406 12.97394531 3.35882812 14.13539063 3.25390625 15.33203125 C3.17011719 16.21246094 3.08632813 17.09289062 3 18 C2.01 18 1.02 18 0 18 C0 12.06 0 6.12 0 0 Z " fill="#393A3B" transform="translate(821,204)"/>
<path d="M0 0 C0.99 0 1.98 0 3 0 C3 5.94 3 11.88 3 18 C2.01 18 1.02 18 0 18 C0 12.06 0 6.12 0 0 Z " fill="#3A3A3A" transform="translate(484,204)"/>
<path d="M0 0 C2.625 0.25 2.625 0.25 4.4375 1.625 C5.625 3.25 5.625 3.25 5.625 5.25 C1.995 5.25 -1.635 5.25 -5.375 5.25 C-2.90277778 0.30555556 -2.90277778 0.30555556 0 0 Z " fill="#03B7F3" transform="translate(445.375,205.75)"/>
<path d="M0 0 C0.33 1.32 0.66 2.64 1 4 C-2.3 4 -5.6 4 -9 4 C-8.67 2.68 -8.34 1.36 -8 0 C-5.13822943 -1.43088528 -3.06624227 -0.59991697 0 0 Z " fill="#03B6F2" transform="translate(395,207)"/>
<path d="M0 0 C2.64 0 5.28 0 8 0 C7.125 3.875 7.125 3.875 6 5 C3.66702567 5.04092937 1.33294775 5.04241723 -1 5 C-0.67 3.35 -0.34 1.7 0 0 Z " fill="#01BCFA" transform="translate(738,214)"/>
</svg>
